#!OML:ASF F:\VICON\USERDATA\Patient Classification 1\PLAYGROUND\JustinFriday\JustinFriday.ASF
:FULLY-SPECIFIED
:DEGREES
2552
root 4.33472 17.8247 50.4157 -567.395 -246.492 152.033
lowerback 11.1774 2.80957 5.94406
upperback 1.02234 4.73816 3.3497
thorax -5.00103 2.27909 -0.544255
lowerneck -5.3656 11.3312 -0.297079
upperneck 19.8903 16.7866 -3.22048
head 7.25663 7.92476 0.360667
rclavicle 1.36416e-014 5.06901e-015
rhumerus -18.6506 3.54777 -74.9876
rradius 40.3411
rwrist -11.1736
rhand -19.4439 -21.5952
rfingers 7.12502
rthumb 6.87662 -411.464
lclavicle 1.36416e-014 5.06901e-015
lhumerus -13.3581 40.1147 24.1868
lradius 47.1068
lwrist -27.2267
lhand -8.82351 2.2872
lfingers 7.12502
lthumb 17.1163 31.5532
rfemur 1.77146 -11.4023 28.7049
rtibia 42.3741
rfoot -8.53505 -22.1053
rtoes -1.6443
lfemur -25.9531 21.1615 -21.4875
ltibia 24.1949
lfoot 2.65908 7.39015
ltoes -33.1996
2553
root 4.4537 17.8458 50.4557 -566.709 -247.52 153.08
lowerback 11.256 2.38876 5.34817
upperback 1.09667 4.08597 3.07963
thorax -5.01677 1.96564 -0.404788
lowerneck -5.3422 11.7354 -1.14749
upperneck 19.6734 17.4018 -3.10768
head 7.11038 8.1819 0.550034
rclavicle -6.6332e-014 -4.57205e-015
rhumerus -18.7519 4.94259 -75.6606
rradius 40.751
rwrist -11.3248
rhand -19.2917 -21.3935
rfingers 7.12502
rthumb 7.02362 -411.257
lclavicle -6.6332e-014 -4.57205e-015
lhumerus -14.2835 40.7609 23.297
lradius 47.5993
lwrist -26.1088
lhand -8.2708 2.4078
lfingers 7.12502
lthumb 17.6483 31.6269
rfemur 0.723043 -11.6518 27.5577
rtibia 45.0262
rfoot -6.78387 -21.8341
rtoes 1.05408
lfemur -24.9157 20.6346 -22.1266
ltibia 23.9504
lfoot 2.21203 7.41697
ltoes -33.427
2554
root 4.58483 17.8688 50.4941 -565.238 -248.499 154.88
lowerback 11.0102 2.36223 4.24981
upperback 1.16785 3.87578 2.87449
thorax -4.86961 1.88411 0.0352417
lowerneck -5.13617 11.8359 -1.63091
upperneck 19.5177 17.5832 -3.11143
head 6.98622 8.25239 0.607088
rclavicle 4.62796e-014 1.95803e-014
rhumerus -19.188 5.70444 -75.8381
rradius 41.2427
rwrist -11.4143
rhand -19.0136 -21.1748
rfingers 7.12502
rthumb 7.29204 -411.029
lclavicle 4.62796e-014 1.95803e-014
lhumerus -14.6134 41.4661 23.5639
lradius 48.3885
lwrist -25.2372
lhand -7.92986 2.45473
lfingers 7.12502
lthumb 17.9763 31.644
rfemur -0.35282 -11.8068 26.1049
rtibia 47.6849
rfoot -5.76449 -21.5652
rtoes 6.09325
lfemur -23.7801 20.7822 -23.1526
ltibia 23.3557
lfoot 1.47158 7.05074
ltoes -31.4095
2555
root 4.70822 17.8904 50.5164 -564.448 -249.284 156.236
lowerback 11.2941 2.42975 3.82373
upperback 1.31104 3.89979 2.51776
thorax -4.87841 1.89999 -0.112975
lowerneck -5.22591 11.794 -1.7716
upperneck 19.4741 17.5592 -3.17564
head 6.9816 8.22712 0.610306
rclavicle 9.11925e-015 2.74323e-014
rhumerus -19.663 6.13937 -76.0966
rradius 41.789
rwrist -11.6623
rhand -18.9397 -21.3033
rfingers 7.12502
rthumb 7.36339 -411.155
lclavicle 9.11925e-015 2.74323e-014
lhumerus -14.3487 41.9297 24.2344
lradius 49.0791
lwrist -24.8714
lhand -7.73636 2.27963
lfingers 7.12502
lthumb 18.1625 31.4517
rfemur -1.18734 -11.7863 24.8863
rtibia 50.2534
rfoot -5.6884 -21.3847
rtoes 15.1724
lfemur -22.3241 20.9971 -23.7903
ltibia 22.6039
lfoot 0.814503 6.62268
ltoes -30.1476
2556
root 4.82377 17.9146 50.5371 -561.914 -249.918 159.513
lowerback 11.1579 4.2725 2.22095
upperback 1.54883 6.10121 2.04173
thorax -4.60587 3.01508 -0.0239703
lowerneck -4.69892 10.192 0.755344
upperneck 19.4952 15.3408 -4.45711
head 7.16748 7.24564 -0.339314
rclavicle 1.78906e-015 -1.35174e-014
rhumerus -21.5095 2.34695 -74.6984
rradius 42.6368
rwrist -11.9629
rhand -18.7998 -21.4789
rfingers 7.12502
rthumb 7.49843 -411.326
lclavicle 1.78906e-015 -1.35174e-014
lhumerus -8.29638 40.7125 30.3614
lradius 49.0289
lwrist -25.5459
lhand -7.67502 1.96162
lfingers 7.12502
lthumb 18.2215 31.1281
rfemur -1.98937 -11.2796 23.173
rtibia 52.7423
rfoot -2.82017 -21.2494
rtoes 17.5186
lfemur -20.7491 21.4567 -24.9158
ltibia 21.7895
lfoot 0.204522 6.25329
ltoes -29.6266
2557
root 4.94286 17.9303 50.5626 -560.753 -250.863 161.088
lowerback 10.9638 4.87939 1.68162
upperback 1.77712 6.80594 1.60434
thorax -4.25989 3.37499 -0.250636
lowerneck -4.73387 9.67113 1.62387
upperneck 19.5105 14.6068 -4.82284
head 7.24689 6.92314 -0.638656
rclavicle -1.5381e-014 2.5842e-015
rhumerus -22.3483 0.87584 -74.3899
rradius 43.2053
rwrist -12.3029
rhand -18.4249 -21.5338
rfingers 7.12502
rthumb 7.86021 -411.368
lclavicle -1.5381e-014 2.5842e-015
lhumerus -4.64236 41.9507 33.6774
lradius 48.7178
lwrist -27.6677
lhand -7.21924 1.21544
lfingers 7.12502
lthumb 18.66 30.3405
rfemur -2.95926 -11.2951 22.0323
rtibia 55.0798
rfoot -0.738879 -21.2303
rtoes 22.4996
lfemur -19.4728 21.6335 -25.6759
ltibia 20.9905
lfoot -0.504679 5.62245
ltoes -28.6802
2558
root 5.05726 17.9467 50.5869 -560.569 -251.645 161.506
lowerback 11.2012 5.04933 0.542171
upperback 1.52533 6.92266 1.93287
thorax -4.8296 3.44498 0.654868
lowerneck -4.25298 9.60411 1.90128
upperneck 19.8235 14.6657 -5.33194
head 7.3289 6.94939 -0.849404
rclavicle 6.44559e-014 -1.96797e-014
rhumerus -23.5101 1.88533 -73.9532
rradius 43.8676
rwrist -12.8436
rhand -18.4346 -21.6237
rfingers 7.12502
rthumb 7.85092 -411.458
lclavicle 6.44559e-014 -1.96797e-014
lhumerus -4.6946 42.0997 34.5263
lradius 48.8281
lwrist -28.2288
lhand -7.1327 0.843391
lfingers 7.12502
lthumb 18.7432 29.9604
rfemur -4.03225 -11.27 21.4608
rtibia 57.2491
rfoot 1.23046 -21.4286
rtoes 27.3492
lfemur -18.3397 21.44 -25.921
ltibia 20.281
lfoot -0.888128 5.25843
ltoes -27.3437
2559
root 5.16549 17.9623 50.6133 -560.678 -252.471 161.636
lowerback 10.9526 5.47656 1.30109
upperback 1.85762 7.53265 1.22121
thorax -4.15806 3.73909 -0.532352
lowerneck -4.55223 9.09675 2.29622
upperneck 19.7087 13.8496 -5.12857
head 7.32009 6.59235 -0.904792
rclavicle 1.55549e-014 -8.74653e-015
rhumerus -23.9827 0.209427 -74.2048
rradius 44.2505
rwrist -12.6737
rhand -18.8166 -21.5183
rfingers 7.12502
rthumb 7.48216 -411.366
lclavicle 1.55549e-014 -8.74653e-015
lhumerus -1.30995 41.587 37.0921
lradius 48.6517
lwrist -28.4185
lhand -7.26238 0.745341
lfingers 7.12502
lthumb 18.6185 29.8743
rfemur -5.05668 -11.2347 21.0416
rtibia 59.2346
rfoot 2.91646 -21.6022
rtoes 30.3356
lfemur -17.3231 21.0553 -26.0427
ltibia 19.8376
lfoot -1.30553 5.07525
ltoes -25.6273
2560
root 5.27188 17.9742 50.6407 -561.052 -253.342 161.505
lowerback 11.009 5.63871 1.22529
upperback 1.9345 7.73355 1.08361
thorax -4.09693 3.84066 -0.661055
lowerneck -4.58536 8.88143 2.43518
upperneck 19.8633 13.5961 -5.27098
head 7.38546 6.47006 -0.986902
rclavicle 4.4329e-014 -1.63003e-014
rhumerus -24.4569 -0.180229 -74.3176
rradius 44.3901
rwrist -12.5389
rhand -18.958 -21.2958
rfingers 7.12502
rthumb 7.34573 -411.148
lclavicle 4.4329e-014 -1.63003e-014
lhumerus -0.0396823 41.2626 38.459
lradius 48.6064
lwrist -28.7191
lhand -7.49734 0.610498
lfingers 7.12502
lthumb 18.3924 29.761
rfemur -5.97432 -11.2065 20.7121
rtibia 61.0493
rfoot 3.85126 -21.5776
rtoes 31.9139
lfemur -16.3153 20.6307 -26.0854
ltibia 19.4284
lfoot -1.81082 4.82326
ltoes -24.0758
2561
root 5.37576 17.9831 50.6656 -561.521 -254.387 161.23
lowerback 11.093 5.60834 1.09336
upperback 1.97427 7.67338 0.949032
thorax -4.10075 3.8124 -0.725494
lowerneck -4.47868 8.76237 2.49582
upperneck 19.8632 13.4842 -5.48681
head 7.38139 6.41109 -1.07896
rclavicle -9.13416e-014 1.03368e-014
rhumerus -24.8464 -0.185362 -74.5479
rradius 44.5706
rwrist -12.6037
rhand -18.6554 -21.3328
rfingers 7.12502
rthumb 7.6378 -411.175
lclavicle -9.13416e-014 1.03368e-014
lhumerus 0.455948 40.7508 39.0559
lradius 48.7128
lwrist -28.7303
lhand -7.72044 0.464239
lfingers 7.12502
lthumb 18.1778 29.6348
rfemur -6.84286 -11.328 20.338
rtibia 62.7247
rfoot 4.75374 -20.8829
rtoes 31.1526
lfemur -15.3507 20.3869 -26.2361
ltibia 18.9268
lfoot -2.50214 4.20924
ltoes -23.2222
2562
root 5.47355 17.993 50.6947 -560.946 -255.814 161.99
lowerback 11.1447 5.56857 0.457272
upperback 2.01956 7.53657 0.732371
thorax -4.13527 3.7517 -0.586516
lowerneck -4.32376 8.61672 2.67064
upperneck 19.7858 13.3286 -5.77527
head 7.35367 6.33599 -1.21948
rclavicle -1.55052e-014 1.98785e-015
rhumerus -25.229 -0.232874 -74.7649
rradius 44.803
rwrist -12.6536
rhand -18.1751 -21.7424
rfingers 7.12502
rthumb 8.10138 -411.567
lclavicle -1.55052e-014 1.98785e-015
lhumerus 1.12922 40.1531 39.7398
lradius 48.7907
lwrist -28.6437
lhand -7.78313 0.335349
lfingers 7.12502
lthumb 18.1175 29.5116
rfemur -7.72172 -11.6071 19.5558
rtibia 64.2654
rfoot 3.55026 -20.4112
rtoes 32.8975
lfemur -14.4716 20.0092 -26.8481
ltibia 18.4645
lfoot -3.19818 3.52702
ltoes -22.0226
